<?xml version="1.0" encoding="UTF-8"?>
<svg width="74px" height="60px" viewBox="0 0 74 60" version="1.1" xmlns="http://www.w3.org/2000/svg" xmlns:xlink="http://www.w3.org/1999/xlink">
    <title>BRKS Logo Red</title>
    <defs>
        <polygon id="path-1" points="0.0576118421 0.202992888 16.4406168 0.202992888 16.4406168 18.7422248 0.0576118421 18.7422248"></polygon>
        <polygon id="path-3" points="0 0.453815078 21.1090771 0.453815078 21.1090771 18.9473684 0 18.9473684"></polygon>
        <polygon id="path-5" points="0 0.202890469 16.3839441 0.202890469 16.3839441 18.7421223 0 18.7421223"></polygon>
    </defs>
    <g id="GG-Mantenimiento-base-Copy" stroke="none" stroke-width="1" fill="none" fill-rule="evenodd">
        <g id="GG-Out-Server" transform="translate(-647.000000, -590.000000)">
            <g id="BRKS-Logo-Red" transform="translate(647.000000, 590.000000)">
                <g id="Group-3" transform="translate(56.842105, 0.000000)">
                    <mask id="mask-2" fill="white">
                        <use xlink:href="#path-1"></use>
                    </mask>
                    <g id="Clip-2"></g>
                    <path d="M4.61889474,4.34324893 L8.57504605,4.34324893 C10.1111891,4.38933713 11.3675625,5.63115789 11.3675625,7.19559602 C11.3675625,8.71343385 10.1111891,9.95525462 8.57504605,10.0013428 L4.66552303,10.0013428 L4.66552303,4.34324893 L4.61889474,4.34324893 Z M4.61889474,14.0955107 L7.92380428,14.0955107 L10.7624309,18.6961366 L16.4407204,18.6961366 L12.5773076,13.129707 C14.6253257,12.0717269 15.9288454,9.81750213 15.9288454,7.14950782 C15.9288454,3.10142817 13.0430724,0.202992888 9.22680592,0.202992888 L0.0576118421,0.202992888 L0.0576118421,18.7422248 L4.61889474,18.7422248 L4.61889474,14.0955107 Z" id="Fill-1" fill="#FF4655" mask="url(#mask-2)"></path>
                </g>
                <path d="M29.4856849,24.3203203 C31.7491857,24.3203203 33.412995,25.3590711 34.2446426,26.9850731 L37.8947368,24.9075715 C36.2772158,22.2880693 33.27413,20.5263158 29.4393965,20.5263158 C23.8487914,20.5263158 19.7368421,24.5913207 19.7368421,29.4693265 C19.7368421,34.6635832 23.802503,38.6833376 29.4393965,38.6833376 C32.8585633,38.7285881 36.0462884,37.0120851 37.8021601,34.1215826 L34.1520658,32.044081 C33.2278416,33.7148307 31.3799074,34.7535815 29.4393965,34.7088337 C28.007029,34.7088337 26.6677524,34.1663303 25.6509515,33.17283 C24.6341505,32.1793298 24.0797188,30.8695787 24.1260072,29.4693265 C24.1260072,26.578824 26.3442482,24.3203203 29.4856849,24.3203203" id="Fill-4" fill="#FF4655"></path>
                <path d="M43.0678795,4.84456798 L46.8699804,4.84456798 C48.3458089,4.88970818 49.5532598,6.10598569 49.5532598,7.63824458 C49.5532598,9.12486171 48.3458089,10.3411392 46.8699804,10.3862794 L43.1126921,10.3862794 L43.1126921,4.84456798 L43.0678795,4.84456798 Z M43.0678795,14.3962335 L46.2884123,14.3962335 L49.0165043,18.9022282 L54.4736842,18.9022282 L50.7163959,13.4502956 C52.6841674,12.4140773 53.9369287,10.2062202 53.9369287,7.59310438 C53.9369287,3.62829047 51.1640241,0.789473684 47.4963611,0.789473684 L38.6842105,0.789473684 L38.6842105,18.9473684 L43.0678795,18.9473684 L43.0678795,14.3962335 Z" id="Fill-6" fill="#FF4655"></path>
                <path d="M65.9443567,27.753171 C63.459928,27.1211417 62.285105,26.7596229 62.285105,25.9013302 C62.285105,24.9077822 63.866288,24.3205027 65.1311338,24.3205027 C66.9386311,24.3205027 67.9776655,25.4945587 67.9776655,26.3981042 L72.2243286,26.3981042 C72.2243286,23.642718 69.7846599,20.5263158 65.1311338,20.5263158 C61.0650192,20.5263158 57.9026533,22.9201833 57.9026533,26.0818381 C57.9026533,29.9665305 62.5561793,30.9600785 65.2216595,31.5926106 C66.8481054,31.9993821 68.3392655,32.3609008 68.3392655,33.4897041 C68.3392655,34.2574915 67.6160654,35.0252788 65.7185453,35.0252788 C62.1945793,35.0252788 61.8782421,32.2251427 61.8782421,32.2251427 L57.6315789,32.2251427 C57.6315789,34.980529 59.935962,38.6842105 65.4927338,38.6842105 C69.6488713,38.6842105 72.6311916,36.6061063 72.6311916,33.2186907 C72.6764544,29.4245038 68.7456255,28.4757056 65.9443567,27.753171" id="Fill-8" fill="#FF4655"></path>
                <path d="M28.3785362,55.2631579 C27.0870481,55.3062985 26.0112074,56.3828971 26.0538577,57.6747196 C26.0538577,58.966542 27.0870481,60 28.3785362,60 C29.6700243,60 30.7894737,58.966542 30.7894737,57.6747196 C30.7894737,56.3828971 29.7131538,55.3062985 28.3785362,55.2631579" id="Fill-10" fill="#FF4655"></path>
                <polygon id="Fill-12" fill="#FF4655" points="14.2105263 46.1623489 21.3157895 49.7368421 21.3157895 42.6315789 14.5632594 45.9859824"></polygon>
                <path d="M42.7022426,52.8640683 L48.2138069,52.8640683 L48.2138069,54.5800505 C47.2418452,55.4382929 45.7130036,56.070788 43.7675333,56.070788 C42.331505,56.116038 40.9418833,55.5740431 39.9224837,54.5800505 C38.9041153,53.5865606 38.30186,52.2768233 38.3482667,50.8765859 C38.3482667,47.9408637 40.5711457,45.8176311 43.7216422,45.8176311 C45.8058169,45.8176311 47.1954385,46.4501262 48.1215092,47.5341161 L51.9201521,45.6823838 C50.0205729,43.1981564 46.9639209,41.797919 43.7675333,41.843169 C38.0703423,41.843169 33.9473684,46.0438813 33.9473684,50.9218359 C33.9473684,55.6640404 37.792418,60 43.8139399,60 C49.1403932,60 51.9665588,56.3870355 52.1052632,56.116038 L52.1052632,49.6115958 L42.7022426,49.6115958 L42.7022426,52.8640683 Z" id="Fill-14" fill="#FF4655"></path>
                <path d="M63.2285584,52.8640683 L68.7406383,52.8640683 L68.7406383,54.5800505 C67.768161,55.4382929 66.2393194,56.070788 64.2938491,56.070788 C62.8578208,56.116038 61.4681991,55.5740431 60.4493151,54.5800505 C59.4304311,53.5865606 58.8281758,52.2768233 58.8745825,50.8765859 C58.8745825,47.9408637 61.0974615,45.8176311 64.247958,45.8176311 C66.3321327,45.8176311 67.7217543,46.4501262 68.6483406,47.5341161 L72.4464679,45.6823838 C70.5468887,43.1981564 67.4902367,41.797919 64.2938491,41.843169 C58.5966581,41.843169 54.4736842,46.0438813 54.4736842,50.9218359 C54.4736842,55.6640404 58.3646248,60 64.3402557,60 C69.666709,60 72.4928746,56.3870355 72.6315789,56.116038 L72.6315789,49.6115958 L63.2285584,49.6115958 L63.2285584,52.8640683 Z" id="Fill-16" fill="#FF4655"></path>
                <polygon id="Fill-18" fill="#FF4655" points="50.793566 20.5263158 43.8624593 28.1648579 43.8624593 20.5263158 39.4736842 20.5263158 39.4736842 37.8947368 43.8624593 37.8947368 43.8624593 33.9848682 47.0050136 30.7112073 51.9487504 37.8947368 57.6315789 37.8947368 50.0544742 27.528144 56.2917502 20.5263158"></polygon>
                <g id="Group-22" transform="translate(0.000000, 41.052632)">
                    <mask id="mask-4" fill="white">
                        <use xlink:href="#path-3"></use>
                    </mask>
                    <g id="Clip-21"></g>
                    <polygon id="Fill-20" fill="#FF4655" mask="url(#mask-4)" points="8.02422744 7.07873684 2.91757331 9.70064296 21.1090771 18.9474708 21.1090771 9.93057183 14.7260132 13.1506003 13.0852049 12.3230612 18.1913515 9.70064296 -0.000152255639 0.453815078 -0.000152255639 9.47071408 6.38291165 6.25068563"></polygon>
                </g>
                <g id="Group-25">
                    <mask id="mask-6" fill="white">
                        <use xlink:href="#path-5"></use>
                    </mask>
                    <g id="Clip-24"></g>
                    <path d="M4.56123109,14.8778834 L4.56123109,11.2896615 L8.75000576,11.2896615 C10.5648824,11.2896615 11.4958939,11.7039431 11.4958939,13.0840284 C11.4958939,14.279761 10.5648824,14.8778834 8.75000576,14.8778834 L4.56123109,14.8778834 Z M4.56123109,4.02104125 L8.47075411,4.02104125 C10.2390025,4.02104125 11.0301291,4.61916358 11.0301291,5.86149644 C11.0301291,7.28766999 10.4249975,7.88528023 8.47075411,7.88528023 L4.56123109,7.88528023 L4.56123109,4.02104125 Z M16.3825387,13.3139573 C16.4291669,11.3818378 15.3121604,9.63355903 13.543912,8.80550782 C14.6137722,7.93136842 15.2655321,6.64345946 15.3121604,5.26337411 C15.3587887,2.31936273 13.6371686,0.202890469 8.14487418,0.202890469 L-5.18092105e-05,0.202890469 L-5.18092105e-05,18.7421223 L9.26188076,18.7421223 C14.4277771,18.7421223 16.3825387,16.3501451 16.3825387,13.3139573 L16.3825387,13.3139573 Z" id="Fill-23" fill="#FF4655" mask="url(#mask-6)"></path>
                </g>
                <polygon id="Fill-26" fill="#FF4655" points="0 51.3157895 0 58.4210526 7.10526316 54.8902826"></polygon>
                <path d="M10.2858526,25.2880304 L13.1123731,31.7276778 L7.4134269,31.7276778 L10.2858526,25.2880304 Z M5.88411425,35.1739013 L14.6875909,35.1739013 L15.8460517,37.8947368 L20.5263158,37.8947368 L12.6956161,20.5263158 L7.78376298,20.5263158 L0,37.8493055 L4.6797483,37.8493055 L5.88411425,35.1739013 Z" id="Fill-28" fill="#FF4655"></path>
                <path d="M26.0755815,5.74586724 L28.9299474,12.5043577 L23.1753157,12.5043577 L26.0755815,5.74586724 Z M20.4566318,18.9473684 L21.6802918,16.1090532 L30.4708712,16.1090532 L31.6486313,18.9473684 L36.3157895,18.9473684 L28.4770016,0.789473684 L23.5833705,0.789473684 L15.7894737,18.9473684 L20.4566318,18.9473684 Z" id="Fill-30" fill="#FF4655"></path>
            </g>
        </g>
    </g>
</svg>